<?xml version="1.0" encoding="utf-8"?>
<!-- Generator: Adobe Illustrator 16.0.3, SVG Export Plug-In . SVG Version: 6.00 Build 0)  -->
<!DOCTYPE svg PUBLIC "-//W3C//DTD SVG 1.1//EN" "http://www.w3.org/Graphics/SVG/1.1/DTD/svg11.dtd">
<svg version="1.1" id="Capa_1" xmlns="http://www.w3.org/2000/svg" xmlns:xlink="http://www.w3.org/1999/xlink" x="0px" y="0px"
	 width="59.377px" height="67.142px" viewBox="0 0 59.377 67.142" enable-background="new 0 0 59.377 67.142" xml:space="preserve">
<g>
	<path fill="#262626" d="M35.886,2.308c0,1.274-1.324,2.282-2.75,2.308c-2.135-0.744-3.129-1.173-6.604,0
		c-1.52,0-2.75-1.033-2.75-2.308l0,0c0-1.274,1.23-2.308,2.75-2.308h6.604C34.654,0,35.886,1.033,35.886,2.308L35.886,2.308z"/>
	<circle fill="#E31B6D" stroke="#262626" stroke-width="5" stroke-miterlimit="10" cx="29.833" cy="15.368" r="7.563"/>
	<path fill="#262626" d="M20.583,22.931c2.719,3.669,6,4.544,6,4.544l-7,17.125h-8.5C11.084,44.599,20.021,24.23,20.583,22.931z"/>
	<path fill="#262626" d="M39.125,22.931c-2.719,3.669-6,4.544-6,4.544l7,17.125h8.5C48.625,44.599,39.687,24.23,39.125,22.931z"/>
	<polygon fill="#262626" points="8.584,50.267 17.083,50.267 11.084,63.099 5.959,67.142 5.876,67.058 4.584,59.933 	"/>
	<polygon fill="#262626" points="50.875,50.267 42.375,50.267 48.375,63.099 53.5,67.142 53.583,67.058 54.875,59.933 	"/>
	<ellipse fill="#5A6AC1" cx="2.584" cy="46.013" rx="2.584" ry="2.541"/>
	<ellipse fill="#5A6AC1" cx="56.792" cy="46.013" rx="2.584" ry="2.541"/>
	<path fill="#5A6AC1" d="M33.958,47.425c0,2.488-1.846,4.508-4.125,4.508l0,0c-2.277,0-4.125-2.02-4.125-4.508v-2.734
		c0-2.49,1.848-4.508,4.125-4.508l0,0c2.279,0,4.125,2.018,4.125,4.508V47.425z"/>
	<polygon fill="#5A6AC1" points="4.584,44.599 25.708,44.691 25.708,47.425 4.424,47.425 	"/>
	<polygon fill="#5A6AC1" points="33.958,44.691 54.875,44.599 54.875,47.425 33.958,47.425 	"/>
	<g>
		<path fill="none" stroke="#E31B6D" stroke-width="4" stroke-miterlimit="10" d="M17.648,63.099c15.551,4.438,24.373,0,24.373,0"/>
		<path fill="#E31B6D" d="M20.001,63.171c0,1.1-0.924,1.99-2.063,1.99s-2.062-0.891-2.062-1.99c0-1.096,0.923-1.988,2.062-1.988
			S20.001,62.076,20.001,63.171z"/>
		<path fill="#E31B6D" d="M44.083,63.171c0,1.1-0.924,1.99-2.063,1.99s-2.063-0.891-2.063-1.99c0-1.096,0.924-1.988,2.063-1.988
			S44.083,62.076,44.083,63.171z"/>
	</g>
</g>
</svg>
