<?xml version="1.0" encoding="utf-8"?>
<!-- Generator: Adobe Illustrator 16.0.3, SVG Export Plug-In . SVG Version: 6.00 Build 0)  -->
<!DOCTYPE svg PUBLIC "-//W3C//DTD SVG 1.1//EN" "http://www.w3.org/Graphics/SVG/1.1/DTD/svg11.dtd">
<svg version="1.1" id="Capa_1" xmlns="http://www.w3.org/2000/svg" xmlns:xlink="http://www.w3.org/1999/xlink" x="0px" y="0px"
	 width="60.333px" height="64.75px" viewBox="0 0 60.333 64.75" enable-background="new 0 0 60.333 64.75" xml:space="preserve">
<g>
	<rect x="5.033" y="39.667" fill="#5A6AC1" width="50.467" height="7.25"/>
	<line fill="none" stroke="#262626" stroke-width="2" stroke-miterlimit="10" x1="2" y1="39.667" x2="58.333" y2="39.667"/>
	<line fill="none" stroke="#262626" stroke-width="3" stroke-miterlimit="10" x1="23.417" y1="48.084" x2="23.417" y2="55"/>
	<line fill="none" stroke="#262626" stroke-width="3" stroke-miterlimit="10" x1="36.5" y1="48.084" x2="36.5" y2="55"/>
	<circle fill="#E31B6D" stroke="#E31B6D" stroke-miterlimit="10" cx="48.75" cy="43.291" r="1.5"/>
	<path fill="#5A6AC1" d="M21.208,12.625c0,0-7.928,6.559-7.928,8.793s7.928,9.082,7.928,9.082"/>
	<path fill="#5A6AC1" d="M37.958,12.438c0,0,8.013,6.773,8.013,9.031c0,2.258-8.013,9.031-8.013,9.031"/>
	<path fill="none" stroke="#5A6AC1" stroke-width="3" stroke-miterlimit="10" d="M33.833,9.938
		c0.313-0.688-8.568,23.783-8.375,23.25"/>
	<path fill="none" stroke="#262626" stroke-width="4" stroke-miterlimit="10" d="M47.25,2c1.146,0-33.562,0-33.562,0
		C7.233,2,2,8.26,2,15.981v18.787C2,42.49,7.233,48.75,13.689,48.75h32.954c6.455,0,11.689-6.26,11.689-13.98
		c0,0,0.006-24.686,0-23.645"/>
	<path fill="#5A6AC1" stroke="#262626" stroke-width="3" stroke-miterlimit="10" d="M47.25,59.125c0,2.277-1.849,4.125-4.125,4.125
		H16.958c-2.278,0-4.125-1.848-4.125-4.125l0,0c0-2.277,1.847-4.125,4.125-4.125h26.167C45.403,55,47.25,56.848,47.25,59.125
		L47.25,59.125z"/>
</g>
</svg>
