<?xml version="1.0" encoding="utf-8"?>
<!-- Generator: Adobe Illustrator 16.0.3, SVG Export Plug-In . SVG Version: 6.00 Build 0)  -->
<!DOCTYPE svg PUBLIC "-//W3C//DTD SVG 1.1//EN" "http://www.w3.org/Graphics/SVG/1.1/DTD/svg11.dtd">
<svg version="1.1" id="Capa_1" xmlns="http://www.w3.org/2000/svg" xmlns:xlink="http://www.w3.org/1999/xlink" x="0px" y="0px"
	 width="61.377px" height="59.91px" viewBox="0 0 61.377 59.91" enable-background="new 0 0 61.377 59.91" xml:space="preserve">
<g>
	<path fill="none" stroke="#262626" stroke-width="2.208" stroke-miterlimit="10" d="M60.242,11.956c0.009-1.875,0,28.473,0,28.473
		s-0.334,3.484-2.756,3.807c-1.812,0-9.066,0-9.066,0v10.566c0,0-0.207,2.16-1.867,2.285c-1.663,0.125-2.4-1.143-2.4-1.143
		l-7.469-11.711H4.943c0,0-3.602,0.334-3.823-4.285c0-3.021,0-28.345,0-31.891C1.054,4.155,4.586,3.964,4.586,3.964
		s51.241,0,49.742,0"/>
	<path fill="none" stroke="#E31B6D" stroke-width="1.9903" stroke-miterlimit="10" d="M35.304,16.532
		c-3.115,0.017,21.211-0.002,18.47,0"/>
	<path fill="none" stroke="#E31B6D" stroke-width="1.9767" stroke-miterlimit="10" d="M35.703,23.958
		c-3.077,0.028,18.81-0.006,14.804,0"/>
	<path fill="none" stroke="#E31B6D" stroke-width="1.7189" stroke-miterlimit="10" d="M35.162,31.413
		c-2.599,0.011,13.829-0.002,11.193,0"/>
	<ellipse fill="#E31B6D" cx="49.439" cy="31.413" rx="0.856" ry="0.923"/>
	<ellipse fill="#E31B6D" cx="52.106" cy="31.413" rx="0.857" ry="0.923"/>
	<ellipse fill="#E31B6D" cx="53.707" cy="24.055" rx="0.855" ry="0.924"/>
	
		<ellipse fill="#5A6AC1" stroke="#262626" stroke-width="1.104" stroke-miterlimit="10" cx="17.923" cy="24.055" rx="11.825" ry="11.78"/>
	<path fill="#FFFFFF" d="M11.015,20.816c0,0,2.082-0.4,3.762,0.678c-0.055-0.313-0.109-1.579-1.607-1.856
		C11.672,19.361,11.015,20.816,11.015,20.816z"/>
	<path fill="#FFFFFF" stroke="#FFFFFF" stroke-width="0.7192" stroke-miterlimit="10" d="M13.325,26.647h9.197
		c0,0,0.194,3.883-4.599,3.879C13.13,30.524,13.325,26.647,13.325,26.647z"/>
	<path fill="#FFFFFF" d="M20.241,21.585c0,0,1.75-1.197,3.721-0.877c-0.176-0.266-0.729-1.405-2.214-1.063
		C20.262,19.987,20.241,21.585,20.241,21.585z"/>
</g>
</svg>
