<?xml version="1.0" encoding="utf-8"?>
<!-- Generator: Adobe Illustrator 16.0.3, SVG Export Plug-In . SVG Version: 6.00 Build 0)  -->
<!DOCTYPE svg PUBLIC "-//W3C//DTD SVG 1.1//EN" "http://www.w3.org/Graphics/SVG/1.1/DTD/svg11.dtd">
<svg version="1.1" id="Capa_1" xmlns="http://www.w3.org/2000/svg" xmlns:xlink="http://www.w3.org/1999/xlink" x="0px" y="0px"
	 width="61.377px" height="59.91px" viewBox="-1.332 5.17 61.377 59.91" enable-background="new -1.332 5.17 61.377 59.91"
	 xml:space="preserve">
<g>
	<path fill="none" stroke="#262626" stroke-width="2.208" stroke-miterlimit="10" d="M58.937,18.738c0,1.38,0,28.473,0,28.473
		s-0.335,3.484-2.756,3.806c-1.812,0-9.067,0-9.067,0v10.567c0,0-0.207,2.16-1.867,2.285c-1.663,0.125-2.4-1.143-2.4-1.143
		l-7.469-11.71H3.637c0,0-3.602,0.334-3.823-4.285c0-3.021,0-28.345,0-31.891c-0.066-3.903,3.467-4.094,3.467-4.094h49.742"/>
	
		<line fill="none" stroke="#E31B6D" stroke-width="1.9903" stroke-miterlimit="10" x1="33.998" y1="23.314" x2="52.468" y2="23.314"/>
	<line fill="none" stroke="#E31B6D" stroke-width="1.9767" stroke-miterlimit="10" x1="34.397" y1="30.74" x2="49.201" y2="30.74"/>
	<ellipse fill="#E31B6D" cx="49.267" cy="30.74" rx="1.134" ry="1.021"/>
	<ellipse fill="#E31B6D" cx="34.221" cy="30.74" rx="1.134" ry="1.021"/>
	<ellipse fill="#E31B6D" cx="52.201" cy="23.314" rx="1.134" ry="1.021"/>
	<ellipse fill="#E31B6D" cx="33.997" cy="23.314" rx="1.134" ry="1.021"/>
	
		<line fill="none" stroke="#E31B6D" stroke-width="1.7189" stroke-miterlimit="10" x1="33.856" y1="38.195" x2="45.05" y2="38.195"/>
	<ellipse fill="#E31B6D" cx="45.049" cy="38.195" rx="0.857" ry="0.923"/>
	<ellipse fill="#E31B6D" cx="33.721" cy="38.195" rx="0.857" ry="0.923"/>
	<ellipse fill="#E31B6D" cx="48.134" cy="38.195" rx="0.856" ry="0.923"/>
	<ellipse fill="#E31B6D" cx="50.801" cy="38.195" rx="0.857" ry="0.923"/>
	<ellipse fill="#E31B6D" cx="52.401" cy="30.837" rx="0.856" ry="0.924"/>
	
		<ellipse fill="#5A6AC1" stroke="#262626" stroke-width="1.104" stroke-miterlimit="10" cx="16.617" cy="30.837" rx="11.825" ry="11.78"/>
	<path fill="#FFFFFF" d="M9.709,27.598c0,0,2.082-0.4,3.762,0.678c-0.055-0.313-0.109-1.579-1.607-1.856
		C10.366,26.143,9.709,27.598,9.709,27.598z"/>
	<path fill="#FFFFFF" stroke="#FFFFFF" stroke-width="0.7192" stroke-miterlimit="10" d="M12.019,33.429h9.197
		c0,0,0.194,3.884-4.599,3.88C11.824,37.307,12.019,33.429,12.019,33.429z"/>
	<path fill="#FFFFFF" d="M18.935,28.367c0,0,1.75-1.197,3.721-0.877c-0.176-0.266-0.729-1.405-2.214-1.063
		C18.956,26.769,18.935,28.367,18.935,28.367z"/>
	<ellipse fill="#262626" cx="53.168" cy="10.747" rx="1.134" ry="1.11"/>
	<ellipse fill="#262626" cx="58.937" cy="18.664" rx="1.134" ry="1.11"/>
</g>
</svg>
